# xmcd
#
# Track frame offsets: 
#        150
#        20675
#        39440
#        56350
#        76005
#        92820
#        118650
#        141112
#        155955
#        170967
#        183547
#        204820
#        247517
#
# Disc length: 3624 seconds
#
# Revision: 10
# Processed by: cddbd v1.5.2PL0 Copyright (c) Steve Scherf et al.
# Submitted via: ExactAudioCopy v1.3
#
DISCID=a60e260d
DTITLE=伍佰 and China Blue - 伍佰的Live
DYEAR=1995
DGENRE=Rock
TTITLE0=無聲的所在
TTITLE1=秋風夜雨 
TTITLE2=墓仔埔也敢去 
TTITLE3=Kiss Me <星星知我心>
TTITLE4=愛情限時批
TTITLE5=點煙
TTITLE6=飛
TTITLE7=小姐免驚
TTITLE8=恨世生
TTITLE9=枉費青春
TTITLE10=繼續墮落
TTITLE11=愛你一萬年
TTITLE12=浪人情歌
EXTD=YEAR: 1995
EXTT0=
EXTT1=
EXTT2=
EXTT3=
EXTT4=
EXTT5=
EXTT6=
EXTT7=
EXTT8=
EXTT9=
EXTT10=
EXTT11=
EXTT12=
PLAYORDER=
